<svg width="91" height="62" viewBox="0 0 91 62" fill="none" xmlns="http://www.w3.org/2000/svg">
<g clip-path="url(#clip0_1_47)">
<path d="M40.2566 56.8086V57.793C40.3243 57.6716 40.5272 57.4828 40.8926 57.4828C41.4338 57.4828 41.7315 57.8199 41.7315 58.3593V60.0583C41.7315 60.6651 41.3391 61.0022 40.7979 61.0022H39.8371C39.6883 61.0022 39.6206 60.9213 39.6206 60.7864V56.8221C39.6206 56.6738 39.7018 56.5929 39.8371 56.5929H40.0266C40.1754 56.5794 40.2566 56.6603 40.2566 56.8086ZM40.6625 60.4359C40.9332 60.4359 41.0956 60.2875 41.0956 60.0179V58.4537C41.0956 58.184 40.9467 58.0627 40.6896 58.0627C40.4596 58.0627 40.2566 58.184 40.2566 58.4537V60.4493L40.6625 60.4359Z" fill="black"/>
<path d="M42.2862 57.5098H42.4486C42.5839 57.5098 42.6651 57.5772 42.6921 57.712L42.9492 58.8177C43.1116 59.5594 43.1793 60.1257 43.1793 60.1257C43.1793 60.1257 43.2469 59.5459 43.4093 58.8177L43.6529 57.712C43.6799 57.5772 43.7747 57.5098 43.8965 57.5098H44.0588C44.2212 57.5098 44.2889 57.6042 44.2618 57.7525L43.4905 60.9617C43.3417 61.5955 42.9898 61.9191 42.3809 61.9191H42.3538C42.205 61.9191 42.1238 61.8382 42.1238 61.7033V61.582C42.1238 61.4336 42.205 61.3662 42.3403 61.3527H42.3809C42.6515 61.3393 42.8004 61.137 42.8004 60.8673C42.8004 60.7999 42.7869 60.7055 42.7733 60.6516L42.0562 57.7525C42.0562 57.6042 42.1373 57.5098 42.2862 57.5098Z" fill="black"/>
<path d="M46.5622 57.5232C46.9411 57.5232 47.117 57.712 47.1711 57.7794V56.8086C47.1711 56.6602 47.2523 56.5793 47.3876 56.5793H47.577C47.7259 56.5793 47.8071 56.6602 47.8071 56.8086V60.7729C47.8071 60.9212 47.7259 60.9887 47.577 60.9887H47.3876C47.2388 60.9887 47.1576 60.9212 47.1576 60.8134V60.7055C47.1034 60.8134 46.9005 61.0156 46.5216 61.0156C45.9668 61.0156 45.6826 60.665 45.6826 60.1257V58.4267C45.6961 57.8469 46.048 57.5232 46.5622 57.5232ZM46.7381 58.0761C46.481 58.0761 46.3321 58.2109 46.3321 58.4806V60.0717C46.3321 60.3279 46.481 60.4628 46.7381 60.4628C46.9681 60.4628 47.1711 60.3414 47.1711 60.0717V58.4671C47.1711 58.2109 46.9681 58.0761 46.7381 58.0761Z" fill="black"/>
<path d="M50.5947 57.739V60.7729C50.5947 60.9212 50.5135 60.9887 50.3646 60.9887H50.2023C50.0534 60.9887 49.9858 60.9078 49.9858 60.7729V60.6381C49.9316 60.7729 49.7422 61.0156 49.2686 61.0156C48.7273 61.0156 48.4702 60.6516 48.4702 60.1526V57.7255C48.4702 57.5772 48.5514 57.4963 48.6867 57.4963H48.8762C49.025 57.4963 49.0927 57.5772 49.0927 57.7255V60.0313C49.0927 60.301 49.2415 60.4358 49.4986 60.4358C49.7287 60.4358 49.9316 60.2875 49.9316 60.0313V57.712C49.9316 57.5637 50.0128 57.4828 50.1481 57.4828H50.3376C50.5135 57.5098 50.5947 57.5907 50.5947 57.739Z" fill="black"/>
<path d="M51.2983 60.7729V57.739C51.2983 57.5907 51.3795 57.5098 51.5148 57.5098H51.6772C51.8261 57.5098 51.9073 57.5907 51.9073 57.739V57.8603C51.9749 57.712 52.1914 57.4828 52.6109 57.4828C53.1251 57.4828 53.4228 57.8199 53.4228 58.3188V60.7729C53.4228 60.9212 53.3416 60.9887 53.1928 60.9887H53.0033C52.8545 60.9887 52.7868 60.9078 52.7868 60.7729V58.4536C52.7868 58.184 52.638 58.0491 52.3809 58.0491C52.1508 58.0491 51.9479 58.1974 51.9479 58.4536V60.7729C51.9479 60.9212 51.8667 60.9887 51.7313 60.9887H51.5419C51.366 60.9887 51.2983 60.9212 51.2983 60.7729Z" fill="black"/>
<path d="M54.654 59.438V60.0717C54.654 60.3279 54.8029 60.4762 55.1006 60.4762C55.3983 60.4762 55.5471 60.3279 55.5471 60.0852V60.0313C55.5471 59.8964 55.6283 59.8155 55.7636 59.8155H55.9396C56.0884 59.8155 56.1696 59.8829 56.1696 60.0178V60.0582C56.1696 60.6785 55.7636 61.0426 55.0871 61.0426C54.4105 61.0426 54.0181 60.6785 54.0181 60.0448V58.4267C54.0181 57.8064 54.4105 57.4288 55.0871 57.4288C55.7636 57.4288 56.1696 57.8064 56.1696 58.4267V59.1953C56.1696 59.3166 56.1155 59.384 56.0207 59.411C55.9937 59.4245 55.9531 59.4245 55.9125 59.4245L54.654 59.438ZM54.654 58.4267V58.9256H55.5471V58.4267C55.5471 58.1705 55.3983 58.0221 55.1006 58.0221C54.8029 58.0221 54.654 58.1705 54.654 58.4267Z" fill="black"/>
<path d="M59.0113 61.0021C58.6459 61.0021 58.47 60.8538 58.4159 60.7864V61.7707C58.4159 61.9191 58.3347 61.9865 58.1994 61.9865H58.01C57.8611 61.9865 57.7935 61.9056 57.7935 61.7707V57.739C57.7935 57.5907 57.8746 57.5098 58.01 57.5098H58.1994C58.3347 57.5098 58.4159 57.5772 58.4159 57.685V57.7929C58.4836 57.6716 58.6865 57.4828 59.0519 57.4828C59.5932 57.4828 59.8909 57.8199 59.8909 58.3593V60.0852C59.9044 60.6785 59.539 61.0021 59.0113 61.0021ZM58.8489 60.4493C59.106 60.4493 59.2549 60.3145 59.2549 60.0448V58.4402C59.2549 58.1705 59.106 58.0356 58.8489 58.0356C58.6189 58.0356 58.4159 58.1705 58.4159 58.4267V60.0583C58.4294 60.3145 58.6189 60.4493 58.8489 60.4493Z" fill="black"/>
<path d="M61.1086 59.438V60.0717C61.1086 60.3279 61.2575 60.4762 61.5552 60.4762C61.8529 60.4762 62.0017 60.3279 62.0017 60.0852V60.0313C62.0017 59.8964 62.0829 59.8155 62.2182 59.8155H62.3941C62.543 59.8155 62.6242 59.8829 62.6242 60.0178V60.0582C62.6242 60.6785 62.2182 61.0426 61.5417 61.0426C60.8651 61.0426 60.4727 60.6785 60.4727 60.0448V58.4267C60.4727 57.8064 60.8651 57.4288 61.5417 57.4288C62.2182 57.4288 62.6242 57.8064 62.6242 58.4267V59.1953C62.6242 59.3166 62.5701 59.384 62.4753 59.411C62.4483 59.4245 62.4077 59.4245 62.3671 59.4245L61.1086 59.438ZM61.1086 58.4267V58.9256H62.0017V58.4267C62.0017 58.1705 61.8529 58.0221 61.5552 58.0221C61.2575 58.0221 61.1086 58.1705 61.1086 58.4267Z" fill="black"/>
<path d="M63.8962 56.8086V57.793C63.9639 57.6716 64.1669 57.4828 64.5322 57.4828C65.0735 57.4828 65.3712 57.8199 65.3712 58.3593V60.0583C65.3712 60.6651 64.9788 61.0022 64.4375 61.0022H63.4768C63.3279 61.0022 63.2603 60.9213 63.2603 60.7864V56.8221C63.2603 56.6738 63.3414 56.5929 63.4768 56.5929H63.6662C63.8286 56.5794 63.8962 56.6603 63.8962 56.8086ZM64.3022 60.4359C64.5864 60.4359 64.7352 60.2875 64.7352 60.0179V58.4537C64.7352 58.184 64.5863 58.0627 64.3292 58.0627C64.0992 58.0627 63.8962 58.184 63.8962 58.4537V60.4493L64.3022 60.4359Z" fill="black"/>
<path d="M66.6567 56.8086V57.793C66.7244 57.6716 66.9274 57.4828 67.2927 57.4828C67.834 57.4828 68.1317 57.8199 68.1317 58.3593V60.0583C68.1317 60.6651 67.7393 61.0022 67.198 61.0022H66.2373C66.0884 61.0022 66.0208 60.9213 66.0208 60.7864V56.8221C66.0208 56.6738 66.1019 56.5929 66.2373 56.5929H66.4267C66.5755 56.5794 66.6567 56.6603 66.6567 56.8086ZM67.0627 60.4359C67.3469 60.4359 67.4957 60.2875 67.4957 60.0179V58.4537C67.4957 58.184 67.3468 58.0627 67.0897 58.0627C66.8597 58.0627 66.6567 58.184 66.6567 58.4537V60.4493L67.0627 60.4359Z" fill="black"/>
<path d="M68.9975 56.5793H69.1869C69.3358 56.5793 69.4035 56.6602 69.4035 56.8086V60.7729C69.4035 60.9212 69.3223 60.9887 69.1869 60.9887H68.9975C68.8487 60.9887 68.781 60.9078 68.781 60.7729V56.8086C68.7675 56.6602 68.8487 56.5793 68.9975 56.5793Z" fill="black"/>
<path d="M70.6891 59.438V60.0717C70.6891 60.3279 70.838 60.4762 71.1356 60.4762C71.4333 60.4762 71.5822 60.3279 71.5822 60.0852V60.0313C71.5822 59.8964 71.6634 59.8155 71.8122 59.8155H71.9881C72.137 59.8155 72.2182 59.8829 72.2182 60.0178V60.0582C72.2182 60.6785 71.8122 61.0426 71.1356 61.0426C70.4591 61.0426 70.0667 60.6785 70.0667 60.0448V58.4267C70.0667 57.8064 70.4591 57.4288 71.1356 57.4288C71.8122 57.4288 72.2182 57.8064 72.2182 58.4267V59.1953C72.2182 59.3166 72.164 59.384 72.0693 59.411C72.0423 59.4245 72.0017 59.4245 71.9611 59.4245L70.6891 59.438ZM70.6891 58.4267V58.9256H71.5822V58.4267C71.5822 58.1705 71.4333 58.0221 71.1356 58.0221C70.838 58.0221 70.6891 58.1705 70.6891 58.4267Z" fill="black"/>
<path d="M73.9503 58.1571C73.8014 58.1571 73.6661 58.1975 73.5849 58.2784C73.5173 58.3458 73.4767 58.4402 73.4767 58.602V60.7865C73.4767 60.9348 73.3955 61.0022 73.2466 61.0022H73.0572C72.9083 61.0022 72.8271 60.9213 72.8271 60.7865V57.7525C72.8271 57.6042 72.9083 57.5233 73.0572 57.5233H73.2196C73.3684 57.5233 73.4496 57.6042 73.4496 57.7525V57.9818C73.4767 57.7795 73.6796 57.4963 74.0315 57.4963C74.1532 57.4963 74.1938 57.5503 74.1938 57.6581V57.8739C74.2074 58.1166 74.1262 58.1436 73.9503 58.1571Z" fill="black"/>
<path d="M37.5366 3.60026C36.1158 3.60026 35.6287 2.84515 35.6287 1.79339C35.6287 0.741627 36.1158 0 37.5366 0C38.9574 0 39.4175 0.768595 39.4175 1.80687C39.4175 2.84515 38.9304 3.60026 37.5366 3.60026ZM37.0495 5.78469H37.9561C38.6868 5.78469 39.1063 6.2027 39.1063 6.93084V24.3119C39.1063 25.04 38.6868 25.458 37.9561 25.458H37.0495C36.3188 25.458 35.8993 25.04 35.8993 24.3119V6.93084C35.8993 6.2027 36.3188 5.78469 37.0495 5.78469Z" fill="black"/>
<path d="M42.1239 6.6881C42.1239 5.95995 42.5028 5.5824 43.2335 5.5824H50.9194C51.6502 5.5824 52.0696 5.95995 52.0696 6.6881V7.03868C52.0696 7.56456 52.002 7.96909 51.7855 8.45452L45.3309 22.7612H50.96C51.6908 22.7612 52.1102 23.1387 52.1102 23.8669V24.3118C52.1102 25.04 51.6908 25.458 50.96 25.458H43.0982C42.3675 25.458 41.948 25.04 41.948 24.3118V23.9613C41.948 23.4354 42.0157 23.0309 42.2322 22.5724L48.6326 8.26574H43.247C42.5163 8.26574 42.1374 7.84773 42.1374 7.11959L42.1239 6.6881Z" fill="black"/>
<path d="M54.9519 24.1096V6.71512C54.9519 5.98698 55.3714 5.56897 56.1021 5.56897H57.0087C57.7394 5.56897 58.1589 5.98698 58.1589 6.71512V24.0962C58.1589 24.8243 57.7394 25.2423 57.0087 25.2423H56.1021C55.3714 25.2558 54.9519 24.8378 54.9519 24.1096Z" fill="black"/>
<path d="M8.72788 48.0709C8.72788 47.3427 9.10677 46.9247 9.83747 46.9247H10.7035C11.4342 46.9247 11.8537 47.3427 11.8537 48.0709V48.5158C11.8537 51.9138 9.79688 54.0983 5.94037 54.0983C2.08387 54.0983 0 51.9138 0 48.5158V39.1039C0 35.6789 2.0568 33.5215 5.94037 33.5215C9.82394 33.5215 11.8537 35.6655 11.8537 39.1039V39.6298C11.8537 40.3579 11.4342 40.7759 10.7035 40.7759H9.83747C9.10677 40.7759 8.72788 40.3579 8.72788 39.6298V39.1039C8.72788 37.4049 7.88892 36.3666 5.9539 36.3666C4.01888 36.3666 3.17993 37.4049 3.17993 39.1039V48.5293C3.17993 50.1879 3.97829 51.2666 5.9539 51.2666C7.92952 51.2666 8.72788 50.1879 8.72788 48.5293C8.72788 48.5158 8.72788 48.0709 8.72788 48.0709Z" fill="#47BCCA"/>
<path d="M26.7249 38.8882V52.6016C26.7249 53.3297 26.3054 53.7477 25.5747 53.7477H24.7358C24.0456 53.7477 23.6262 53.3702 23.6262 52.669V51.7386C23.2743 52.7094 22.1242 53.95 19.702 53.95C16.4003 53.95 14.6953 52.1836 14.6953 49.1631V48.1518C14.6953 45.6977 16.0214 44.201 18.7683 43.2975L23.5585 41.7064V38.8613C23.5585 37.1623 22.8007 36.2993 20.771 36.2993C18.7413 36.2993 17.9835 37.1623 17.9835 38.8343V39.0096C17.9835 39.6973 17.6046 40.0883 16.8739 40.0883H16.0079C15.2772 40.0883 14.8577 39.7377 14.8577 39.05V38.8478C14.8577 35.4902 16.8739 33.5081 20.771 33.5081C24.6681 33.5081 26.7249 35.4902 26.7249 38.8882ZM23.572 48.6238V44.4976L20.0944 45.5763C18.43 46.1292 17.8346 46.8978 17.8346 48.2058V48.9609C17.8346 50.4441 18.633 51.3475 20.4733 51.3475C22.7331 51.361 23.5585 50.1475 23.572 48.6238Z" fill="#47BCCA"/>
<path d="M41.6097 48.0034V48.799C41.6097 52.224 39.5529 54.0983 35.6964 54.0983C31.8399 54.0983 29.8914 52.197 29.8914 48.799V48.7316C29.8914 48.0034 30.2026 47.5854 31.001 47.5854H31.867C32.6653 47.5854 32.9766 48.0034 32.9766 48.7585V48.799C32.9766 50.498 33.7073 51.334 35.6829 51.334C37.6585 51.334 38.4569 50.5384 38.4569 48.8394V48.2461C38.4569 47.1404 38.0103 46.4123 36.6436 45.819L33.0983 44.12C31.1498 43.2166 29.9996 41.7333 29.9996 39.4815V38.8207C29.9996 35.4632 31.8805 33.5215 35.737 33.5215C39.5935 33.5215 41.4338 35.4227 41.4338 38.7533V38.8882C41.4338 39.5084 41.1226 39.8995 40.3513 39.8995H39.4447C38.6463 39.8995 38.2945 39.5489 38.2945 38.9286V38.7938C38.2945 37.1352 37.6991 36.2318 35.7235 36.2318C33.7479 36.2318 33.1119 37.1352 33.1119 38.7938V39.2792C33.1119 40.5602 33.6396 41.2479 34.8439 41.8142L38.3215 43.4728C40.3242 44.4032 41.6097 45.819 41.6097 48.0034Z" fill="#47BCCA"/>
<path d="M44.1807 33.8722H45.2632L45.7909 31.027C45.9668 30.3663 46.3863 30.0562 47.1441 30.0562C47.9019 30.0562 48.2943 30.4742 48.2943 31.2023V33.8722H51.0006C51.7313 33.8722 52.1508 34.2497 52.1508 34.9779V35.4633C52.1508 36.1914 51.7313 36.569 51.0006 36.569H48.2943V48.7586C48.2943 50.3228 48.9167 51.0105 50.3781 51.0105C51.5283 51.0105 52.462 50.7408 52.462 51.8465V52.5072C52.462 53.4376 51.4877 53.8961 49.8504 53.8961C46.5487 53.8961 45.1279 51.9544 45.1279 48.88V36.5825H44.1942C43.4635 36.5825 43.044 36.2049 43.044 35.4768V34.9913C43.0305 34.2497 43.45 33.8722 44.1807 33.8722Z" fill="#47BCCA"/>
<path d="M56.1021 34.0743H57.0087C57.7394 34.0743 58.1589 34.4924 58.1589 35.2205V52.615C58.1589 53.3432 57.7394 53.7612 57.0087 53.7612H56.1021C55.3714 53.7612 54.9519 53.3432 54.9519 52.615V35.2205C54.9519 34.4924 55.3714 34.0743 56.1021 34.0743Z" fill="#47BCCA"/>
<path d="M62.4619 52.6015V34.9778C62.4619 34.2496 62.8814 33.8721 63.6121 33.8721H64.3699C65.1006 33.8721 65.4795 34.2496 65.4795 34.9778V35.9082C65.8313 35.1126 67.0762 33.7238 69.5389 33.7238C72.5294 33.7238 74.1938 35.625 74.1938 38.578V52.6015C74.1938 53.3297 73.8149 53.7477 73.0842 53.7477H72.1776C71.4469 53.7477 71.0274 53.3297 71.0274 52.6015V39.1309C71.0274 37.4319 70.1614 36.5015 68.4564 36.5015C66.9679 36.5015 65.6418 37.4049 65.6418 39.0635V52.6015C65.6418 53.3297 65.2224 53.7477 64.4917 53.7477H63.585C62.8814 53.7477 62.4619 53.3432 62.4619 52.6015Z" fill="#47BCCA"/>
<path d="M89.7551 35.1126C89.2679 35.1126 88.8214 35.2205 88.4696 35.4632C89.1326 36.2992 89.4438 37.4049 89.4438 38.6859V41.5985C89.4438 44.7538 87.5359 46.7629 83.3546 46.7629C82.3127 46.7629 81.8256 47.2888 81.8256 48.3271C81.8256 49.2575 82.3127 49.6755 83.8418 49.6755H85.8174C89.2544 49.6755 90.7564 51.0643 90.7564 53.8016V54.3949C90.7564 57.2401 88.8485 59.0335 84.153 59.0335H82.7998C80.6754 59.0335 79.011 58.7233 77.9014 58.2379C77.306 57.9952 77.103 57.5502 77.103 56.9569V56.2962C77.103 55.4602 77.6984 55.2175 78.4562 55.5411C79.7823 56.0265 80.9595 56.2962 82.7322 56.2962H83.8418C86.7917 56.2962 87.6983 55.568 87.6983 54.3275V54.0443C87.6983 53.033 87.4141 52.3453 85.5738 52.3453H83.4223C80.5401 52.3453 78.9433 51.3745 78.9433 49.3653V48.8125C78.9433 47.572 79.7417 46.7359 80.8513 46.4528C78.4156 45.7921 77.2654 44.0256 77.2654 41.5985V38.6859C77.2654 35.5037 79.1734 33.5215 83.3546 33.5215C84.9514 33.5215 86.2098 33.8047 87.1841 34.3575C87.6306 32.9417 88.7537 32.1461 90.0392 32.1461C90.7699 32.1461 91.0135 32.4293 91.0135 33.0091V33.98C91 34.6946 90.7293 35.1126 89.7551 35.1126ZM86.3045 38.6455C86.3045 36.9869 85.3979 36.1104 83.3546 36.1104C81.3114 36.1104 80.4047 36.9734 80.4047 38.6455V41.585C80.4047 43.2436 81.3114 44.12 83.3546 44.12C85.3979 44.12 86.3045 43.257 86.3045 41.585V38.6455Z" fill="#47BCCA"/>
<path d="M58.47 29.665C58.47 30.7033 57.9829 31.4719 56.5891 31.4719C55.1954 31.4719 54.6812 30.7168 54.6812 29.665C54.6812 28.6133 55.1683 27.8582 56.5891 27.8582C58.0099 27.8582 58.47 28.6267 58.47 29.665Z" fill="black"/>
</g>
<defs>
<clipPath id="clip0_1_47">
<rect width="91" height="62" fill="white"/>
</clipPath>
</defs>
</svg>
